<svg width="508" height="434" viewBox="0 0 508 434" fill="none" xmlns="http://www.w3.org/2000/svg">
<path d="M326.796 225.506H274.523V315.084H326.796V225.506Z" fill="#FFC299"/>
<path d="M326.796 225.506H274.523V315.084H326.796V225.506Z" fill="white"/>
<path opacity="0.34" d="M281.432 225.506H274.523V315.084H281.432V225.506Z" fill="#333333"/>
<path d="M326.796 225.506H274.523V315.084H326.796V225.506Z" stroke="#170E10" stroke-width="10" stroke-miterlimit="10" stroke-linecap="round" stroke-linejoin="round"/>
<path d="M283.057 295.554H319.582" stroke="#260005" stroke-width="6" stroke-miterlimit="10" stroke-linejoin="round"/>
<path d="M283.057 284.27H319.582" stroke="#260005" stroke-width="6" stroke-miterlimit="10" stroke-linejoin="round"/>
<path d="M283.057 272.986H319.582" stroke="#260005" stroke-width="6" stroke-miterlimit="10" stroke-linejoin="round"/>
<path d="M283.057 261.702H319.582" stroke="#260005" stroke-width="6" stroke-miterlimit="10" stroke-linejoin="round"/>
<path d="M283.057 250.418H319.582" stroke="#260005" stroke-width="6" stroke-miterlimit="10" stroke-linejoin="round"/>
<path d="M283.057 239.134H319.582" stroke="#260005" stroke-width="6" stroke-miterlimit="10" stroke-linejoin="round"/>
<path d="M275.641 190.092H200.457V315.084H275.641V190.092Z" fill="#9DD7CE"/>
<path opacity="0.69" d="M207.264 190.092H200.457V315.084H207.264V190.092Z" fill="#333333"/>
<path d="M184.201 120.522H159.817V104.898C159.817 102.034 162.56 99.6899 165.913 99.6899H178.105C181.458 99.6899 184.201 102.034 184.201 104.898V120.522Z" fill="#C0BFBF"/>
<path opacity="0.69" d="M172.365 99.6899H165.862C162.509 99.6899 159.766 102.034 159.766 104.898V120.522H166.269V104.898C166.269 102.034 169.012 99.6899 172.365 99.6899Z" fill="#333333"/>
<path d="M184.201 120.522H159.817V104.898C159.817 102.034 162.56 99.6899 165.913 99.6899H178.105C181.458 99.6899 184.201 102.034 184.201 104.898V120.522Z" stroke="#170E10" stroke-width="10" stroke-miterlimit="10" stroke-linecap="round" stroke-linejoin="round"/>
<path d="M172.212 99.82V79.422" stroke="#170E10" stroke-width="10" stroke-miterlimit="10" stroke-linecap="round" stroke-linejoin="round"/>
<path d="M468.376 315.084H480.365" stroke="#170E10" stroke-width="10" stroke-miterlimit="10" stroke-linecap="round" stroke-linejoin="round"/>
<path d="M356.87 315.084H459.689" stroke="#170E10" stroke-width="10" stroke-miterlimit="10" stroke-linecap="round" stroke-linejoin="round"/>
<path d="M339.852 315.084H344.424" stroke="#170E10" stroke-width="10" stroke-miterlimit="10" stroke-linecap="round" stroke-linejoin="round"/>
<path d="M89.1538 315.084H332.486" stroke="#170E10" stroke-width="10" stroke-miterlimit="10" stroke-linecap="round" stroke-linejoin="round"/>
<path d="M77.0635 315.084H81.3307" stroke="#170E10" stroke-width="10" stroke-miterlimit="10" stroke-linecap="round" stroke-linejoin="round"/>
<path d="M33.1724 315.084H68.58" stroke="#170E10" stroke-width="10" stroke-miterlimit="10" stroke-linecap="round" stroke-linejoin="round"/>
<path d="M200.457 149.773H143.561V315.084H200.457V149.773Z" fill="#C0BFBF"/>
<path opacity="0.69" d="M149.352 149.773H143.561V315.084H149.352V149.773Z" fill="#333333"/>
<path d="M200.457 149.773H143.561V315.084H200.457V149.773Z" stroke="#170E10" stroke-width="10" stroke-miterlimit="10" stroke-linecap="round" stroke-linejoin="round"/>
<path d="M153.416 279.062H190.5" stroke="#170E10" stroke-width="6" stroke-miterlimit="10" stroke-linejoin="round"/>
<path d="M153.416 284.27H190.5" stroke="#170E10" stroke-width="6" stroke-miterlimit="10" stroke-linejoin="round"/>
<path d="M153.416 264.306H190.5" stroke="#170E10" stroke-width="6" stroke-miterlimit="10" stroke-linejoin="round"/>
<path d="M153.416 269.514H190.5" stroke="#170E10" stroke-width="6" stroke-miterlimit="10" stroke-linejoin="round"/>
<path d="M153.416 249.55H190.5" stroke="#170E10" stroke-width="6" stroke-miterlimit="10" stroke-linejoin="round"/>
<path d="M153.416 254.758H190.5" stroke="#170E10" stroke-width="6" stroke-miterlimit="10" stroke-linejoin="round"/>
<path d="M153.416 234.794H190.5" stroke="#170E10" stroke-width="6" stroke-miterlimit="10" stroke-linejoin="round"/>
<path d="M153.416 240.002H190.5" stroke="#170E10" stroke-width="6" stroke-miterlimit="10" stroke-linejoin="round"/>
<path d="M153.416 220.038H190.5" stroke="#170E10" stroke-width="6" stroke-miterlimit="10" stroke-linejoin="round"/>
<path d="M153.416 225.246H190.5" stroke="#170E10" stroke-width="6" stroke-miterlimit="10" stroke-linejoin="round"/>
<path d="M153.416 205.282H190.5" stroke="#170E10" stroke-width="6" stroke-miterlimit="10" stroke-linejoin="round"/>
<path d="M153.416 210.49H190.5" stroke="#170E10" stroke-width="6" stroke-miterlimit="10" stroke-linejoin="round"/>
<path d="M153.416 190.526H190.5" stroke="#170E10" stroke-width="6" stroke-miterlimit="10" stroke-linejoin="round"/>
<path d="M153.416 195.734H190.5" stroke="#170E10" stroke-width="6" stroke-miterlimit="10" stroke-linejoin="round"/>
<path d="M153.416 175.77H190.5" stroke="#170E10" stroke-width="6" stroke-miterlimit="10" stroke-linejoin="round"/>
<path d="M153.416 180.978H190.5" stroke="#170E10" stroke-width="6" stroke-miterlimit="10" stroke-linejoin="round"/>
<path d="M153.416 161.014H190.5" stroke="#170E10" stroke-width="6" stroke-miterlimit="10" stroke-linejoin="round"/>
<path d="M153.416 166.222H190.5" stroke="#170E10" stroke-width="6" stroke-miterlimit="10" stroke-linejoin="round"/>
<path d="M190.805 149.773H153.213V131.111C153.213 122.258 161.646 115.053 172.009 115.053C182.372 115.053 190.805 122.258 190.805 131.111V149.773Z" fill="#C0BFBF"/>
<path opacity="0.69" d="M175.311 115.314C174.244 115.14 173.126 115.053 172.009 115.053C161.646 115.053 153.213 122.258 153.213 131.111V149.773H159.817V131.111C159.817 123.213 166.472 116.659 175.311 115.314Z" fill="#333333"/>
<path d="M190.805 149.773H153.213V131.111C153.213 122.258 161.646 115.053 172.009 115.053C182.372 115.053 190.805 122.258 190.805 131.111V149.773Z" stroke="#170E10" stroke-width="10" stroke-miterlimit="10" stroke-linecap="round" stroke-linejoin="round"/>
<path d="M275.641 190.092H200.457V315.084H275.641V190.092Z" stroke="#170E10" stroke-width="10" stroke-miterlimit="10" stroke-linecap="round" stroke-linejoin="round"/>
<path d="M278.029 181.412H200.457V190.092H278.029V181.412Z" fill="#BD2B3E"/>
<path d="M278.384 181.412H200.457V190.092H278.384V181.412Z" stroke="#170E10" stroke-width="10" stroke-miterlimit="10" stroke-linecap="round" stroke-linejoin="round"/>
<path d="M184.201 292.733H159.817V315.084H184.201V292.733Z" fill="white"/>
<path opacity="0.34" d="M184.201 293.601H159.817V298.158H184.201V293.601Z" fill="#333333"/>
<path opacity="0.34" d="M165.456 298.158H159.817V315.084H165.456V298.158Z" fill="#333333"/>
<path d="M184.201 292.733H159.817V315.084H184.201V292.733Z" stroke="#170E10" stroke-width="10" stroke-miterlimit="10" stroke-linecap="round" stroke-linejoin="round"/>
<path d="M263.144 290.78V297.29" stroke="#170E10" stroke-width="10" stroke-miterlimit="10" stroke-linejoin="round"/>
<path d="M252.984 290.78V297.29" stroke="#170E10" stroke-width="10" stroke-miterlimit="10" stroke-linejoin="round"/>
<path d="M242.824 290.78V297.29" stroke="#170E10" stroke-width="10" stroke-miterlimit="10" stroke-linejoin="round"/>
<path d="M232.664 290.78V297.29" stroke="#170E10" stroke-width="10" stroke-miterlimit="10" stroke-linejoin="round"/>
<path d="M222.504 290.78V297.29" stroke="#170E10" stroke-width="10" stroke-miterlimit="10" stroke-linejoin="round"/>
<path d="M212.344 290.78V297.29" stroke="#170E10" stroke-width="10" stroke-miterlimit="10" stroke-linejoin="round"/>
<path d="M263.144 273.42V279.93" stroke="#170E10" stroke-width="10" stroke-miterlimit="10" stroke-linejoin="round"/>
<path d="M252.984 273.42V279.93" stroke="#170E10" stroke-width="10" stroke-miterlimit="10" stroke-linejoin="round"/>
<path d="M242.824 273.42V279.93" stroke="#170E10" stroke-width="10" stroke-miterlimit="10" stroke-linejoin="round"/>
<path d="M232.664 273.42V279.93" stroke="#170E10" stroke-width="10" stroke-miterlimit="10" stroke-linejoin="round"/>
<path d="M222.504 273.42V279.93" stroke="#170E10" stroke-width="10" stroke-miterlimit="10" stroke-linejoin="round"/>
<path d="M212.344 273.42V279.93" stroke="#170E10" stroke-width="10" stroke-miterlimit="10" stroke-linejoin="round"/>
<path d="M263.144 256.06V262.57" stroke="#170E10" stroke-width="10" stroke-miterlimit="10" stroke-linejoin="round"/>
<path d="M252.984 256.06V262.57" stroke="#170E10" stroke-width="10" stroke-miterlimit="10" stroke-linejoin="round"/>
<path d="M242.824 256.06V262.57" stroke="#170E10" stroke-width="10" stroke-miterlimit="10" stroke-linejoin="round"/>
<path d="M232.664 256.06V262.57" stroke="#170E10" stroke-width="10" stroke-miterlimit="10" stroke-linejoin="round"/>
<path d="M222.504 256.06V262.57" stroke="#170E10" stroke-width="10" stroke-miterlimit="10" stroke-linejoin="round"/>
<path d="M212.344 256.06V262.57" stroke="#170E10" stroke-width="10" stroke-miterlimit="10" stroke-linejoin="round"/>
<path d="M263.144 238.7V245.21" stroke="#170E10" stroke-width="10" stroke-miterlimit="10" stroke-linejoin="round"/>
<path d="M252.984 238.7V245.21" stroke="#170E10" stroke-width="10" stroke-miterlimit="10" stroke-linejoin="round"/>
<path d="M242.824 238.7V245.21" stroke="#170E10" stroke-width="10" stroke-miterlimit="10" stroke-linejoin="round"/>
<path d="M232.664 238.7V245.21" stroke="#170E10" stroke-width="10" stroke-miterlimit="10" stroke-linejoin="round"/>
<path d="M222.504 238.7V245.21" stroke="#170E10" stroke-width="10" stroke-miterlimit="10" stroke-linejoin="round"/>
<path d="M212.344 238.7V245.21" stroke="#170E10" stroke-width="10" stroke-miterlimit="10" stroke-linejoin="round"/>
<path d="M263.144 221.34V227.85" stroke="#170E10" stroke-width="10" stroke-miterlimit="10" stroke-linejoin="round"/>
<path d="M252.984 221.34V227.85" stroke="#170E10" stroke-width="10" stroke-miterlimit="10" stroke-linejoin="round"/>
<path d="M242.824 221.34V227.85" stroke="#170E10" stroke-width="10" stroke-miterlimit="10" stroke-linejoin="round"/>
<path d="M232.664 221.34V227.85" stroke="#170E10" stroke-width="10" stroke-miterlimit="10" stroke-linejoin="round"/>
<path d="M222.504 221.34V227.85" stroke="#170E10" stroke-width="10" stroke-miterlimit="10" stroke-linejoin="round"/>
<path d="M212.344 221.34V227.85" stroke="#170E10" stroke-width="10" stroke-miterlimit="10" stroke-linejoin="round"/>
<path d="M263.144 203.98V210.49" stroke="#170E10" stroke-width="10" stroke-miterlimit="10" stroke-linejoin="round"/>
<path d="M252.984 203.98V210.49" stroke="#170E10" stroke-width="10" stroke-miterlimit="10" stroke-linejoin="round"/>
<path d="M242.824 203.98V210.49" stroke="#170E10" stroke-width="10" stroke-miterlimit="10" stroke-linejoin="round"/>
<path d="M232.664 203.98V210.49" stroke="#170E10" stroke-width="10" stroke-miterlimit="10" stroke-linejoin="round"/>
<path d="M222.504 203.98V210.49" stroke="#170E10" stroke-width="10" stroke-miterlimit="10" stroke-linejoin="round"/>
<path d="M212.344 203.98V210.49" stroke="#170E10" stroke-width="10" stroke-miterlimit="10" stroke-linejoin="round"/>
<path d="M253.492 290.042H222.25V315.084H253.492V290.042Z" fill="#FFC299"/>
<path opacity="0.69" d="M253.492 290.042H222.25V295.858H253.492V290.042Z" fill="#333333"/>
<path opacity="0.69" d="M228.346 295.901H222.25V315.084H228.346V295.901Z" fill="#333333"/>
<path d="M253.492 290.042H222.25V315.084H253.492V290.042Z" stroke="#170E10" stroke-width="10" stroke-miterlimit="10" stroke-linecap="round" stroke-linejoin="round"/>
<path d="M143.002 190.092H112.217V315.084H143.002V190.092Z" fill="#BD2B3E"/>
<path opacity="0.53" d="M117.348 190.092H112.217V315.084H117.348V190.092Z" fill="#333333"/>
<path d="M143.002 190.092H112.217V315.084H143.002V190.092Z" stroke="#170E10" stroke-width="10" stroke-miterlimit="10" stroke-linecap="round" stroke-linejoin="round"/>
<path d="M120.904 273.42V279.93" stroke="#260005" stroke-width="4" stroke-miterlimit="10" stroke-linejoin="round"/>
<path opacity="0.36" d="M120.904 282.1V284.704" stroke="#FF99AA" stroke-width="4" stroke-miterlimit="10" stroke-linejoin="round"/>
<path d="M127.508 273.42V279.93" stroke="#260005" stroke-width="4" stroke-miterlimit="10" stroke-linejoin="round"/>
<path opacity="0.36" d="M127.508 282.1V284.704" stroke="#FF99AA" stroke-width="4" stroke-miterlimit="10" stroke-linejoin="round"/>
<path d="M134.112 273.42V279.93" stroke="#260005" stroke-width="4" stroke-miterlimit="10" stroke-linejoin="round"/>
<path opacity="0.36" d="M134.112 282.1V284.704" stroke="#FF99AA" stroke-width="4" stroke-miterlimit="10" stroke-linejoin="round"/>
<path d="M120.904 254.324V260.834" stroke="#260005" stroke-width="4" stroke-miterlimit="10" stroke-linejoin="round"/>
<path opacity="0.36" d="M120.904 263.004V265.608" stroke="#FF99AA" stroke-width="4" stroke-miterlimit="10" stroke-linejoin="round"/>
<path d="M127.508 254.324V260.834" stroke="#260005" stroke-width="4" stroke-miterlimit="10" stroke-linejoin="round"/>
<path opacity="0.36" d="M127.508 263.004V265.608" stroke="#FF99AA" stroke-width="4" stroke-miterlimit="10" stroke-linejoin="round"/>
<path d="M134.112 254.324V260.834" stroke="#260005" stroke-width="4" stroke-miterlimit="10" stroke-linejoin="round"/>
<path opacity="0.36" d="M134.112 263.004V265.608" stroke="#FF99AA" stroke-width="4" stroke-miterlimit="10" stroke-linejoin="round"/>
<path d="M120.904 235.228V241.738" stroke="#260005" stroke-width="4" stroke-miterlimit="10" stroke-linejoin="round"/>
<path opacity="0.36" d="M120.904 243.908V246.512" stroke="#FF99AA" stroke-width="4" stroke-miterlimit="10" stroke-linejoin="round"/>
<path d="M127.508 235.228V241.738" stroke="#260005" stroke-width="4" stroke-miterlimit="10" stroke-linejoin="round"/>
<path opacity="0.36" d="M127.508 243.908V246.512" stroke="#FF99AA" stroke-width="4" stroke-miterlimit="10" stroke-linejoin="round"/>
<path d="M134.112 235.228V241.738" stroke="#260005" stroke-width="4" stroke-miterlimit="10" stroke-linejoin="round"/>
<path opacity="0.36" d="M134.112 243.908V246.512" stroke="#FF99AA" stroke-width="4" stroke-miterlimit="10" stroke-linejoin="round"/>
<path d="M120.904 216.132V222.642" stroke="#260005" stroke-width="4" stroke-miterlimit="10" stroke-linejoin="round"/>
<path opacity="0.36" d="M120.904 224.812V227.416" stroke="#FF99AA" stroke-width="4" stroke-miterlimit="10" stroke-linejoin="round"/>
<path d="M127.508 216.132V222.642" stroke="#260005" stroke-width="4" stroke-miterlimit="10" stroke-linejoin="round"/>
<path opacity="0.36" d="M127.508 224.812V227.416" stroke="#FF99AA" stroke-width="4" stroke-miterlimit="10" stroke-linejoin="round"/>
<path d="M134.112 216.132V222.642" stroke="#260005" stroke-width="4" stroke-miterlimit="10" stroke-linejoin="round"/>
<path opacity="0.36" d="M134.112 224.812V227.416" stroke="#FF99AA" stroke-width="4" stroke-miterlimit="10" stroke-linejoin="round"/>
<path d="M120.904 197.036V203.546" stroke="#260005" stroke-width="4" stroke-miterlimit="10" stroke-linejoin="round"/>
<path opacity="0.36" d="M120.904 205.716V208.32" stroke="#FF99AA" stroke-width="4" stroke-miterlimit="10" stroke-linejoin="round"/>
<path d="M127.508 197.036V203.546" stroke="#260005" stroke-width="4" stroke-miterlimit="10" stroke-linejoin="round"/>
<path opacity="0.36" d="M127.508 205.716V208.32" stroke="#FF99AA" stroke-width="4" stroke-miterlimit="10" stroke-linejoin="round"/>
<path d="M134.112 197.036V203.546" stroke="#260005" stroke-width="4" stroke-miterlimit="10" stroke-linejoin="round"/>
<path opacity="0.36" d="M134.112 205.716V208.32" stroke="#FF99AA" stroke-width="4" stroke-miterlimit="10" stroke-linejoin="round"/>
<path d="M133.096 294.252H122.936V315.084H133.096V294.252Z" fill="white"/>
<path d="M133.096 294.252H122.936V315.084H133.096V294.252Z" stroke="#170E10" stroke-width="10" stroke-miterlimit="10" stroke-linecap="round" stroke-linejoin="round"/>
<path d="M266.7 161.014V180.414" stroke="#170E10" stroke-width="8" stroke-miterlimit="10" stroke-linecap="round" stroke-linejoin="round"/>
<path d="M261.772 165.05H271.932" stroke="#170E10" stroke-width="8" stroke-miterlimit="10" stroke-linecap="round" stroke-linejoin="round"/>
<path d="M258.47 170.692H275.641" stroke="#170E10" stroke-width="8" stroke-miterlimit="10" stroke-linecap="round" stroke-linejoin="round"/>
<path d="M413.004 315.084V238.266" stroke="#170E10" stroke-width="10" stroke-miterlimit="10" stroke-linecap="round" stroke-linejoin="round"/>
<path d="M393.7 242.693V238.266" stroke="#170E10" stroke-width="10" stroke-miterlimit="10" stroke-linecap="round" stroke-linejoin="round"/>
<path d="M393.7 238.266C393.7 233.709 398.018 230.02 403.352 230.02C408.686 230.02 413.004 233.709 413.004 238.266" stroke="#170E10" stroke-width="10" stroke-miterlimit="10" stroke-linecap="round" stroke-linejoin="round"/>
<path d="M402.59 250.548H384.81L393.7 241.738L402.59 250.548Z" stroke="#170E10" stroke-width="10" stroke-miterlimit="10" stroke-linecap="round" stroke-linejoin="round"/>
<path d="M100.33 315.084V239.134" stroke="#170E10" stroke-width="10" stroke-miterlimit="10" stroke-linecap="round" stroke-linejoin="round"/>
<path d="M81.0259 242.997V239.134" stroke="#170E10" stroke-width="10" stroke-miterlimit="10" stroke-linecap="round" stroke-linejoin="round"/>
<path d="M81.0259 239.134C81.0259 234.577 85.3439 230.888 90.6779 230.888C96.0119 230.888 100.33 234.577 100.33 239.134" stroke="#170E10" stroke-width="10" stroke-miterlimit="10" stroke-linecap="round" stroke-linejoin="round"/>
<path d="M89.9157 251.416H72.1357L81.0257 242.606L89.9157 251.416Z" fill="white"/>
<path d="M89.9157 251.416H72.1357L81.0257 242.606L89.9157 251.416Z" stroke="#170E10" stroke-width="10" stroke-miterlimit="10" stroke-linecap="round" stroke-linejoin="round"/>
<path d="M54.0004 299.764C65.5033 299.764 74.8284 288.708 74.8284 275.069C74.8284 261.431 65.5033 250.375 54.0004 250.375C42.4974 250.375 33.1724 261.431 33.1724 275.069C33.1724 288.708 42.4974 299.764 54.0004 299.764Z" fill="#FF6550"/>
<path opacity="0.53" d="M38.9126 275.069C38.9126 262.787 46.4818 252.632 56.3878 250.722C55.2702 250.505 54.1526 250.375 53.035 250.375C41.5542 250.375 32.207 261.442 32.207 275.069C32.207 288.697 41.5542 299.764 53.035 299.764C54.2034 299.764 55.321 299.634 56.3878 299.417C46.431 297.507 38.9126 287.352 38.9126 275.069Z" fill="#333333"/>
<path d="M54.0004 299.764C65.5033 299.764 74.8284 288.708 74.8284 275.069C74.8284 261.431 65.5033 250.375 54.0004 250.375C42.4974 250.375 33.1724 261.431 33.1724 275.069C33.1724 288.708 42.4974 299.764 54.0004 299.764Z" stroke="#170E10" stroke-width="10" stroke-miterlimit="10" stroke-linecap="round" stroke-linejoin="round"/>
<path d="M54.7622 289.565L60.7566 284.487" stroke="#170E10" stroke-width="10" stroke-miterlimit="10" stroke-linecap="round" stroke-linejoin="round"/>
<path d="M54.0004 281.839L47.6504 276.718" stroke="#170E10" stroke-width="10" stroke-miterlimit="10" stroke-linecap="round" stroke-linejoin="round"/>
<path d="M284.226 304.841C291.24 304.841 296.926 298.157 296.926 289.912C296.926 281.666 291.24 274.982 284.226 274.982C277.212 274.982 271.526 281.666 271.526 289.912C271.526 298.157 277.212 304.841 284.226 304.841Z" fill="#E97E1C"/>
<path opacity="0.53" d="M276.606 289.912C276.606 282.707 280.975 276.675 286.766 275.286C285.953 275.112 285.089 274.982 284.226 274.982C277.215 274.982 271.526 281.666 271.526 289.912C271.526 298.158 277.215 304.841 284.226 304.841C285.089 304.841 285.953 304.755 286.766 304.538C280.975 303.149 276.606 297.116 276.606 289.912Z" fill="#333333"/>
<path d="M284.226 304.841C291.24 304.841 296.926 298.157 296.926 289.912C296.926 281.666 291.24 274.982 284.226 274.982C277.212 274.982 271.526 281.666 271.526 289.912C271.526 298.157 277.212 304.841 284.226 304.841Z" stroke="#170E10" stroke-width="10" stroke-miterlimit="10" stroke-linecap="round" stroke-linejoin="round"/>
<path d="M387.502 275.677C389.433 291.084 375.767 297.29 368.351 296.899C360.883 297.29 347.269 291.084 349.199 275.677C352.653 260.747 360.223 249.203 368.351 249.246C376.428 249.203 384.048 260.747 387.502 275.677Z" fill="#D44644"/>
<path opacity="0.53" d="M373.228 296.031C365.76 296.422 352.146 290.216 354.076 274.809C356.921 262.396 362.712 252.284 369.215 249.29C368.91 249.246 368.656 249.246 368.351 249.246C360.223 249.159 352.603 260.704 349.199 275.677C347.269 291.084 360.934 297.29 368.351 296.899C370.129 296.986 372.212 296.726 374.345 296.031C373.939 296.075 373.583 296.075 373.228 296.031Z" fill="#333333"/>
<path d="M387.502 275.677C389.433 291.084 375.767 297.29 368.351 296.899C360.883 297.29 347.269 291.084 349.199 275.677C352.653 260.747 360.223 249.203 368.351 249.246C376.428 249.203 384.048 260.747 387.502 275.677Z" stroke="#170E10" stroke-width="10" stroke-miterlimit="10" stroke-linecap="round" stroke-linejoin="round"/>
<path d="M368.351 286.57L374.752 281.102" stroke="#170E10" stroke-width="10" stroke-miterlimit="10" stroke-linecap="round" stroke-linejoin="round"/>
<path d="M368.351 277.109L361.34 271.12" stroke="#170E10" stroke-width="10" stroke-miterlimit="10" stroke-linecap="round" stroke-linejoin="round"/>
<path d="M208.534 335.482H262.128" stroke="#170E10" stroke-width="10" stroke-miterlimit="10" stroke-linecap="round" stroke-linejoin="round"/>
<path d="M270.154 335.482H275.641" stroke="#170E10" stroke-width="10" stroke-miterlimit="10" stroke-linecap="round" stroke-linejoin="round"/>
<path d="M282.092 335.482H283.159" stroke="#170E10" stroke-width="10" stroke-miterlimit="10" stroke-linecap="round" stroke-linejoin="round"/>
<path d="M182.575 335.482H195.834" stroke="#170E10" stroke-width="10" stroke-miterlimit="10" stroke-linecap="round" stroke-linejoin="round"/>
<path d="M284.226 294.469V296.943V298.896V314.39" stroke="#170E10" stroke-width="10" stroke-miterlimit="10" stroke-linecap="round" stroke-linejoin="round"/>
<path d="M368.351 265.825V315.084" stroke="#170E10" stroke-width="10" stroke-miterlimit="10" stroke-linecap="round" stroke-linejoin="round"/>
<path d="M54.7622 270.382V315.084" stroke="#170E10" stroke-width="10" stroke-miterlimit="10" stroke-linecap="round" stroke-linejoin="round"/>
<path d="M438.861 298.375C450.364 298.375 459.689 287.319 459.689 273.68C459.689 260.042 450.364 248.986 438.861 248.986C427.358 248.986 418.033 260.042 418.033 273.68C418.033 287.319 427.358 298.375 438.861 298.375Z" fill="#E97E1C"/>
<path opacity="0.53" d="M423.113 273.68C423.113 261.094 431.088 250.678 441.401 249.203C440.588 249.072 439.724 249.029 438.861 249.029C427.38 249.029 418.033 260.096 418.033 273.724C418.033 287.351 427.38 298.418 438.861 298.418C439.724 298.418 440.588 298.331 441.401 298.245C431.088 296.682 423.113 286.266 423.113 273.68Z" fill="#333333"/>
<path d="M438.861 298.375C450.364 298.375 459.689 287.319 459.689 273.68C459.689 260.042 450.364 248.986 438.861 248.986C427.358 248.986 418.033 260.042 418.033 273.68C418.033 287.319 427.358 298.375 438.861 298.375Z" stroke="#170E10" stroke-width="10" stroke-miterlimit="10" stroke-linecap="round" stroke-linejoin="round"/>
<path d="M439.674 290.346L445.617 285.268" stroke="#170E10" stroke-width="10" stroke-miterlimit="10" stroke-linecap="round" stroke-linejoin="round"/>
<path d="M438.861 282.578L432.511 277.5" stroke="#170E10" stroke-width="10" stroke-miterlimit="10" stroke-linecap="round" stroke-linejoin="round"/>
<path d="M439.674 271.12V314.91" stroke="#170E10" stroke-width="10" stroke-miterlimit="10" stroke-linecap="round" stroke-linejoin="round"/>
<path d="M166.269 133.976V149.773" stroke="#170E10" stroke-width="6" stroke-miterlimit="10" stroke-linejoin="round"/>
<path d="M177.292 133.976V149.773" stroke="#170E10" stroke-width="6" stroke-miterlimit="10" stroke-linejoin="round"/>
<path opacity="0.55" d="M53.8478 262.353C54.8298 262.353 55.6258 261.673 55.6258 260.834C55.6258 259.995 54.8298 259.315 53.8478 259.315C52.8659 259.315 52.0698 259.995 52.0698 260.834C52.0698 261.673 52.8659 262.353 53.8478 262.353Z" fill="white"/>
<path opacity="0.55" d="M64.8207 279.279C66.0832 279.279 67.1067 278.405 67.1067 277.326C67.1067 276.247 66.0832 275.373 64.8207 275.373C63.5581 275.373 62.5347 276.247 62.5347 277.326C62.5347 278.405 63.5581 279.279 64.8207 279.279Z" fill="white"/>
<path opacity="0.53" d="M63.0428 268.95C64.3054 268.95 65.3288 268.076 65.3288 266.997C65.3288 265.918 64.3054 265.044 63.0428 265.044C61.7803 265.044 60.7568 265.918 60.7568 266.997C60.7568 268.076 61.7803 268.95 63.0428 268.95Z" fill="#333333"/>
<path opacity="0.53" d="M47.6505 270.946C48.5764 270.946 49.3269 270.305 49.3269 269.514C49.3269 268.723 48.5764 268.082 47.6505 268.082C46.7247 268.082 45.9741 268.723 45.9741 269.514C45.9741 270.305 46.7247 270.946 47.6505 270.946Z" fill="#333333"/>
<path opacity="0.55" d="M282.651 283.966C283.324 283.966 283.87 283.5 283.87 282.925C283.87 282.349 283.324 281.883 282.651 281.883C281.978 281.883 281.432 282.349 281.432 282.925C281.432 283.5 281.978 283.966 282.651 283.966Z" fill="white"/>
<path opacity="0.53" d="M290.017 288.523C290.971 288.523 291.744 287.863 291.744 287.048C291.744 286.233 290.971 285.572 290.017 285.572C289.063 285.572 288.29 286.233 288.29 287.048C288.29 287.863 289.063 288.523 290.017 288.523Z" fill="#333333"/>
<path opacity="0.55" d="M367.588 262.743C368.262 262.743 368.808 262.277 368.808 261.702C368.808 261.127 368.262 260.66 367.588 260.66C366.915 260.66 366.369 261.127 366.369 261.702C366.369 262.277 366.915 262.743 367.588 262.743Z" fill="white"/>
<path opacity="0.55" d="M377.596 275.329C378.55 275.329 379.323 274.669 379.323 273.854C379.323 273.039 378.55 272.378 377.596 272.378C376.642 272.378 375.869 273.039 375.869 273.854C375.869 274.669 376.642 275.329 377.596 275.329Z" fill="white"/>
<path opacity="0.53" d="M374.955 267.3C375.909 267.3 376.682 266.64 376.682 265.825C376.682 265.01 375.909 264.349 374.955 264.349C374.001 264.349 373.228 265.01 373.228 265.825C373.228 266.64 374.001 267.3 374.955 267.3Z" fill="#333333"/>
<path opacity="0.53" d="M361.34 283.358C362.294 283.358 363.067 282.698 363.067 281.883C363.067 281.068 362.294 280.407 361.34 280.407C360.386 280.407 359.613 281.068 359.613 281.883C359.613 282.698 360.386 283.358 361.34 283.358Z" fill="#333333"/>
<path opacity="0.55" d="M446.582 268.776C447.901 268.776 448.97 267.863 448.97 266.737C448.97 265.61 447.901 264.697 446.582 264.697C445.264 264.697 444.195 265.61 444.195 266.737C444.195 267.863 445.264 268.776 446.582 268.776Z" fill="white"/>
<path opacity="0.53" d="M445.567 278.932C446.52 278.932 447.294 278.271 447.294 277.456C447.294 276.641 446.52 275.981 445.567 275.981C444.613 275.981 443.839 276.641 443.839 277.456C443.839 278.271 444.613 278.932 445.567 278.932Z" fill="#333333"/>
<path opacity="0.53" d="M437.337 263.525C438.291 263.525 439.064 262.864 439.064 262.049C439.064 261.234 438.291 260.574 437.337 260.574C436.383 260.574 435.61 261.234 435.61 262.049C435.61 262.864 436.383 263.525 437.337 263.525Z" fill="#333333"/>
<path d="M362.103 315.084C362.103 310.093 366.827 306.1 372.618 306.1C378.409 306.1 383.134 310.136 383.134 315.084H362.103Z" fill="#E97E1C"/>
<path opacity="0.53" d="M375.716 306.491C374.751 306.23 373.684 306.1 372.567 306.1C366.725 306.1 362.051 310.136 362.051 315.084H368.3C368.35 311.048 371.449 307.619 375.716 306.491Z" fill="#333333"/>
<path d="M362.103 315.084C362.103 310.093 366.827 306.1 372.618 306.1C378.409 306.1 383.134 310.136 383.134 315.084H362.103Z" stroke="#170E10" stroke-width="10" stroke-miterlimit="10" stroke-linecap="round" stroke-linejoin="round"/>
<path d="M375.412 315.084C375.412 307.923 382.168 302.151 390.55 302.151C398.932 302.151 405.689 307.923 405.689 315.084H375.412Z" fill="#D44644"/>
<path opacity="0.53" d="M393.446 302.411C392.48 302.238 391.515 302.151 390.499 302.151C382.117 302.151 375.361 307.923 375.361 315.084H381.203C381.254 308.791 386.486 303.54 393.446 302.411Z" fill="#333333"/>
<path d="M375.412 315.084C375.412 307.923 382.168 302.151 390.55 302.151C398.932 302.151 405.689 307.923 405.689 315.084H375.412Z" stroke="#170E10" stroke-width="10" stroke-miterlimit="10" stroke-linecap="round" stroke-linejoin="round"/>
</svg>
